<svg width="16" height="16" viewBox="0 0 16 16" fill="none" xmlns="http://www.w3.org/2000/svg">
<g clip-path="url(#clip0_194_73)">
<path d="M5.53999 5.3404L10.6494 10.4498C10.8251 10.6255 11.11 10.6255 11.2858 10.4498L15.7264 6.00915C15.9021 5.8334 15.9021 5.5485 15.7264 5.37275L10.617 0.263404C10.4413 0.0876543 10.1564 0.0876543 9.98062 0.263404L5.53999 4.70403C5.36427 4.87975 5.36427 5.16469 5.53999 5.3404Z" fill="#825527"/>
<path d="M0.310791 9.64091L6.34879 15.6789L11.9824 10.0453L5.7317 4.21997L0.310791 9.64091Z" fill="#00B1FF"/>
<path d="M4.06483 9.40377L6.58586 11.9248C6.81067 12.1496 7.17514 12.1496 7.39992 11.9248L9.68299 9.64174C9.91339 9.41134 9.9068 9.03574 9.66839 8.81359L7.05855 6.38134C6.83174 6.16996 6.47827 6.17618 6.25905 6.3954L4.0648 8.58965C3.84005 8.81452 3.84005 9.17899 4.06483 9.40377Z" fill="#59CAFC"/>
<path d="M0.24485 10.3432L5.64647 15.7449C5.82222 15.9206 6.10713 15.9206 6.28288 15.7449L7.20263 14.8251L1.1646 8.78711L0.24485 9.70683C0.0690996 9.88258 0.0690996 10.1675 0.24485 10.3432Z" fill="#CFD2D3"/>
<path d="M9.34381 12.6839L8.42009 13.6076L5.73975 4.21191L9.34381 12.6839Z" fill="#009FD6"/>
<path d="M14.498 4.14413L14.056 3.7022L11.9759 5.78229L10.3143 4.1207L12.3944 2.0406L11.9524 1.59863L9.87232 3.67873L8.21882 2.02523L7.77686 2.4672L9.43039 4.1207L7.32373 6.22732L7.7657 6.66929L9.87232 4.56266L11.5339 6.22426L9.42729 8.33088L9.86923 8.77282L11.9759 6.6662L13.5226 8.21291L13.9646 7.77098L12.4179 6.22426L14.498 4.14413Z" fill="#6B3F18"/>
<path d="M6.34302 6.32633L7.82027 11.5046L8.53724 10.7876L6.59877 6.23096C6.50708 6.2417 6.41935 6.27442 6.34302 6.32633Z" fill="#3DBBE8"/>
<path d="M5.67809 4.12269L5.66578 4.135C5.6206 4.18019 5.59026 4.23809 5.57881 4.30097C5.56737 4.36384 5.57536 4.42872 5.60172 4.48694L9.36972 12.8073C9.53953 13.1823 10.0318 13.2719 10.3229 12.9808L13.0405 10.2632C13.066 10.2377 13.0863 10.2074 13.1001 10.1741C13.1139 10.1407 13.121 10.105 13.121 10.0689C13.121 10.0328 13.1139 9.99711 13.1001 9.96378C13.0863 9.93045 13.066 9.90016 13.0405 9.87465L6.10134 4.10328C6.04107 4.05317 5.96426 4.02738 5.88596 4.03097C5.80766 4.03456 5.73353 4.06727 5.67809 4.12269Z" fill="#CFD2D3"/>
</g>
<defs>
<clipPath id="clip0_194_73">
<rect width="16" height="16" fill="white"/>
</clipPath>
</defs>
</svg>
