<svg width="16" height="16" viewBox="0 0 16 16" fill="none" xmlns="http://www.w3.org/2000/svg">
<path d="M9.5 2.00001C8.75866 2.03248 7.5 3.00001 6.5 3.50001C5.5 3.16667 4.02737 2.33314 3.5 2.50001C2.80638 2.71951 2.01956 3.87982 1.26459 4.71876H14.8808C14.6063 4.08139 13.8983 2.52773 13.5 2.50001C13.0001 2.46523 11 4.00001 11 4.00001C10.5 3.33336 9.85719 1.98439 9.5 2.00001ZM0.847906 5.28126L2.22741 11.7188H3.71875V5.28126H0.847906ZM4.28125 5.28126V5.71876H5.71875V5.28126H4.28125ZM6.28125 5.28126V11.7188H13.7727L15.1521 5.28126H6.28125ZM4.28125 6.28126V6.71876H5.71875V6.28126H4.28125ZM4.28125 7.28126V7.71876H5.71875V7.28126H4.28125ZM4.28125 8.28126V8.71876H5.71875V8.28126H4.28125ZM4.28125 9.28126V9.71876H5.71875V9.28126H4.28125ZM4.28125 10.2813V10.7188H5.71875V10.2813H4.28125ZM4.28125 11.2813V11.7188H5.71875V11.2813H4.28125ZM0.78125 12.2813V13.2188H15.2188V12.2813H0.78125ZM1.15069 13.7813C1.07459 13.9199 1.03125 14.0795 1.03125 14.25C1.03125 14.7884 1.46166 15.2188 2 15.2188C2.53834 15.2188 2.96875 14.7884 2.96875 14.25C2.96875 14.0795 2.92541 13.9199 2.84931 13.7813H1.15069ZM3.65069 13.7813C3.57459 13.9199 3.53125 14.0795 3.53125 14.25C3.53125 14.7884 3.96166 15.2188 4.5 15.2188C5.03834 15.2188 5.46875 14.7884 5.46875 14.25C5.46875 14.0795 5.42541 13.9199 5.34931 13.7813H3.65069ZM6.20506 13.7813L6.67381 14.7188H9.32616L9.79491 13.7813H6.20506ZM10.6507 13.7813C10.5746 13.9199 10.5312 14.0795 10.5312 14.25C10.5312 14.7884 10.9617 15.2188 11.5 15.2188C12.0383 15.2188 12.4688 14.7884 12.4688 14.25C12.4688 14.0795 12.4254 13.9199 12.3493 13.7813H10.6507ZM13.1507 13.7813C13.0746 13.9199 13.0312 14.0795 13.0312 14.25C13.0312 14.7884 13.4617 15.2188 14 15.2188C14.5383 15.2188 14.9688 14.7884 14.9688 14.25C14.9688 14.0795 14.9254 13.9199 14.8493 13.7813H13.1507Z" fill="#1E1E1E"/>
</svg>
