<svg width="16" height="16" viewBox="0 0 16 16" fill="none" xmlns="http://www.w3.org/2000/svg">
<g clip-path="url(#clip0_194_22)">
<path d="M10.6499 7.59995C10.6499 7.59995 13.2249 6.94995 14.5499 5.19995" stroke="#6F6F6D" stroke-width="0.375" stroke-miterlimit="10"/>
<path d="M13.725 6.02505C13.7 5.35005 13.8 4.80005 14 4.47505C14.3 4.27505 14.85 4.17505 15.5 4.17505C15.525 4.85005 15.425 5.40005 15.225 5.72505C14.9 5.95005 14.375 6.05005 13.725 6.02505Z" fill="#6F6F6D"/>
<path d="M10.55 12.8C11.268 12.8 11.85 12.4418 11.85 12C11.85 11.5581 11.268 11.2 10.55 11.2C9.83203 11.2 9.25 11.5581 9.25 12C9.25 12.4418 9.83203 12.8 10.55 12.8Z" fill="#F4A19A"/>
<path d="M10.15 13.525C10.025 13.525 9.92505 13.4 9.92505 13.225V12.525C9.92505 12.35 10.025 12.225 10.15 12.225C10.275 12.225 10.375 12.35 10.375 12.525V13.225C10.375 13.4 10.275 13.525 10.15 13.525ZM10.95 13.525C10.825 13.525 10.725 13.4 10.725 13.225V12.525C10.725 12.35 10.825 12.225 10.95 12.225C11.075 12.225 11.175 12.35 11.175 12.525V13.225C11.175 13.4 11.075 13.525 10.95 13.525Z" fill="#F4A19A"/>
<path d="M13.8251 9.12502C13.8251 10.825 12.3251 12.2 10.4501 12.2H4.4751V6.02502H10.4501C12.3251 6.02502 13.8251 7.40002 13.8251 9.12502Z" fill="#CFDAE8"/>
<path d="M8.12515 9.07507C8.55015 9.07507 8.90015 9.30007 9.12515 9.62507C8.40015 9.67507 7.82515 10.3251 7.82515 11.1251C7.82515 11.9501 8.45015 12.6501 9.22515 12.6501H9.35015V14.2501C9.35015 14.9501 8.80015 15.5001 8.12515 15.5001C7.45015 15.5001 6.90015 14.9501 6.90015 14.2501V10.3251C6.90015 9.62507 7.45015 9.07507 8.12515 9.07507Z" fill="#CFDAE8"/>
<path d="M7.82495 11.125C7.82495 10.325 8.39995 9.675 9.12495 9.625C9.24995 9.825 9.34995 10.075 9.34995 10.325V12.625H9.22495C8.44995 12.625 7.82495 11.95 7.82495 11.125Z" fill="#6F6F6D"/>
<path d="M8.1249 15.5C8.7999 15.5 9.3499 14.95 9.3499 14.25H6.8999C6.8999 14.95 7.4499 15.5 8.1249 15.5Z" fill="#3E4347"/>
<path d="M4.1249 12.8C4.1249 12.25 3.5999 11.8 2.8999 11.725V10.3C2.8999 9.60005 3.4499 9.05005 4.1249 9.05005C4.7999 9.05005 5.3499 9.60005 5.3499 10.3V14.25C5.3499 14.95 4.7999 15.5 4.1249 15.5C3.4499 15.5 2.8999 14.95 2.8999 14.25V13.85C3.5749 13.8 4.1249 13.35 4.1249 12.8Z" fill="#CFDAE8"/>
<path d="M4.1249 12.8C4.1249 13.35 3.5999 13.8 2.8999 13.875V11.75C3.5749 11.8 4.1249 12.25 4.1249 12.8Z" fill="#6F6F6D"/>
<path d="M4.1249 15.5C3.4499 15.5 2.8999 14.95 2.8999 14.25H5.3499C5.3499 14.95 4.7999 15.5 4.1249 15.5Z" fill="#3E4347"/>
<path d="M12.6999 8.65002C13.0749 8.65002 13.4249 8.85002 13.6249 9.15002C12.9749 9.20002 12.4499 9.80002 12.4499 10.525C12.4499 11.275 13.0249 11.9 13.7249 11.9H13.8499V13.375C13.8499 14 13.3499 14.525 12.7249 14.525C12.0999 14.525 11.6249 14.025 11.6249 13.375V9.80002C11.5999 9.17502 12.0999 8.65002 12.6999 8.65002Z" fill="#CFDAE8"/>
<path d="M12.45 10.525C12.45 9.80002 12.975 9.20002 13.625 9.15002C13.75 9.32502 13.825 9.55002 13.825 9.80002V11.9H13.7C13 11.9 12.45 11.275 12.45 10.525Z" fill="#6F6F6D"/>
<path d="M12.7001 14.525C13.3251 14.525 13.8251 14.025 13.8251 13.375H11.6001C11.6001 14 12.1001 14.525 12.7001 14.525Z" fill="#3E4347"/>
<path d="M4.15012 1.625C3.47512 1.25 3.02512 0.5 3.02512 0.5C2.85012 2.475 3.55012 2.95 3.95012 2.95C4.50012 2.975 4.92512 2.025 4.15012 1.625ZM8.10012 1.625C8.77512 1.25 9.20012 0.5 9.20012 0.5C9.40012 2.475 8.67512 2.95 8.27512 2.95C7.75012 2.975 7.30012 2.025 8.10012 1.625Z" fill="#F6C799"/>
<path d="M11.7501 1.87498C10.7001 1.84998 9.82511 1.99998 9.30011 2.37498C8.97511 2.92498 8.80011 3.89997 8.82511 5.07497C9.87511 5.09997 10.8501 5.04997 11.2751 4.57497C11.7001 4.09997 11.7751 3.04998 11.7501 1.87498Z" fill="#6F6F6D"/>
<path d="M11.475 2.57504C10.725 2.55004 10.125 2.67504 9.75003 2.92504C9.52503 3.32504 9.40003 3.97504 9.42503 4.82504C10.175 4.85004 10.825 4.80004 11.15 4.47504C11.45 4.15004 11.5 3.40004 11.475 2.57504Z" fill="#F4A19A"/>
<path d="M0.499893 1.87498C1.54989 1.84998 2.42489 1.99998 2.94989 2.37498C3.27489 2.92498 3.44989 3.89997 3.42489 5.07497C2.37489 5.09997 1.39989 5.04997 0.974893 4.57497C0.549893 4.09997 0.474893 3.04998 0.499893 1.87498Z" fill="#6F6F6D"/>
<path d="M0.774899 2.57504C1.5249 2.55004 2.1249 2.67504 2.4999 2.92504C2.7249 3.32504 2.8499 3.97504 2.8249 4.82504C2.0749 4.85004 1.4249 4.80004 1.0999 4.47504C0.799899 4.15004 0.749899 3.40004 0.774899 2.57504Z" fill="#F4A19A"/>
<path d="M10.0751 7.3C10.0751 9.95 6.1501 11.425 6.1501 11.425C6.1501 11.425 2.2251 9.95 2.2251 7.3C2.2251 3.4 3.7501 1.375 6.1501 1.375C8.5251 1.375 10.0751 2.825 10.0751 7.3Z" fill="#DAE5EF"/>
<path d="M8.62505 2.25C7.30005 3.675 6.40005 5.5 7.72505 7.175C8.60005 8.275 9.30005 8.275 9.95005 8.1C10.025 7.85 10.075 7.6 10.075 7.325C10.075 4.7 9.67505 3.125 8.62505 2.25ZM4.52505 7.175C5.82505 5.525 4.97505 3.75 3.70005 2.35C2.57505 3.3 2.17505 4.975 2.17505 7.325C2.17505 7.6 2.22505 7.875 2.30005 8.1C2.95005 8.275 3.65005 8.275 4.52505 7.175Z" fill="#6F6F6D"/>
<path d="M7.5249 5.97497C7.5249 5.97497 7.9749 6.72497 8.7999 6.47497C9.6249 6.22497 9.6749 5.34997 9.6749 5.34997C9.6749 5.34997 9.2249 4.59997 8.3999 4.84997C7.5499 5.09997 7.5249 5.97497 7.5249 5.97497Z" fill="white"/>
<path d="M8.59985 6.40007C8.94503 6.40007 9.22485 6.07548 9.22485 5.67507C9.22485 5.27467 8.94503 4.95007 8.59985 4.95007C8.25468 4.95007 7.97485 5.27467 7.97485 5.67507C7.97485 6.07548 8.25468 6.40007 8.59985 6.40007Z" fill="#3E4347"/>
<path d="M7.5249 5.97502C7.5249 5.97502 8.2249 4.87502 9.3499 5.32502C10.0499 5.60002 10.2999 5.15002 10.2999 5.15002C9.9249 5.20002 9.7749 5.05002 9.3499 4.85002C8.5749 4.47502 7.5249 4.67502 7.5249 5.97502Z" fill="#3E4347"/>
<path d="M4.72495 5.97497C4.72495 5.97497 4.27495 6.72497 3.44995 6.47497C2.62495 6.22497 2.57495 5.34997 2.57495 5.34997C2.57495 5.34997 3.02495 4.59997 3.84995 4.84997C4.69995 5.09997 4.72495 5.97497 4.72495 5.97497Z" fill="white"/>
<path d="M3.6499 6.40007C3.99508 6.40007 4.2749 6.07548 4.2749 5.67507C4.2749 5.27467 3.99508 4.95007 3.6499 4.95007C3.30472 4.95007 3.0249 5.27467 3.0249 5.67507C3.0249 6.07548 3.30472 6.40007 3.6499 6.40007Z" fill="#3E4347"/>
<path d="M4.72495 5.97502C4.72495 5.97502 4.02495 4.87502 2.89995 5.32502C2.19995 5.60002 1.94995 5.15002 1.94995 5.15002C2.32495 5.20002 2.47495 5.05002 2.89995 4.85002C3.67495 4.47502 4.72495 4.67502 4.72495 5.97502Z" fill="#3E4347"/>
<path d="M2.8999 9.17494C2.8999 7.64994 3.6499 8.42494 6.1249 8.42494C8.5999 8.42494 9.3499 7.64994 9.3499 9.17494C9.3499 11.3499 7.8249 11.7499 6.1249 11.7499C4.4249 11.7499 2.8999 11.3249 2.8999 9.17494Z" fill="#F4A19A"/>
<path d="M5.07498 9.52497C4.84998 8.89997 4.42498 8.54997 4.12498 8.72497C3.82498 8.92497 3.77498 9.59997 3.97498 10.225C4.19998 10.85 4.62498 11.2 4.92498 11.025C5.22498 10.825 5.29998 10.15 5.07498 9.52497ZM8.12498 8.72497C7.82498 8.52497 7.39998 8.87497 7.17498 9.52497C6.94998 10.15 7.02498 10.825 7.29998 11.025C7.59998 11.225 8.02498 10.875 8.24998 10.225C8.47498 9.59997 8.42498 8.92497 8.12498 8.72497Z" fill="#BC6464"/>
</g>
<defs>
<clipPath id="clip0_194_22">
<rect width="16" height="16" fill="white"/>
</clipPath>
</defs>
</svg>
