<svg width="16" height="16" viewBox="0 0 16 16" fill="none" xmlns="http://www.w3.org/2000/svg">
<path d="M3.80373 1.00001C3.78299 0.999814 3.76253 1.00479 3.7442 1.01447C3.72586 1.02416 3.71022 1.03825 3.69869 1.05549C3.68716 1.07273 3.68009 1.09256 3.67814 1.11321C3.67618 1.13385 3.67939 1.15466 3.68748 1.17376L3.75936 1.34344L5.03123 4.30907C5.03987 4.32924 5.05368 4.34678 5.07125 4.35992C5.08882 4.37307 5.10954 4.38136 5.13133 4.38395C5.15312 4.38655 5.17521 4.38337 5.19538 4.37472C5.21555 4.36607 5.23309 4.35227 5.24623 4.33469L7.59373 1.20001C7.60766 1.18143 7.61614 1.15935 7.61823 1.13623C7.62031 1.11311 7.61592 1.08987 7.60553 1.0691C7.59515 1.04834 7.57919 1.03088 7.55945 1.01867C7.5397 1.00647 7.51694 1.00001 7.49373 1.00001H3.80373ZM13.1228 1.81438L11.8328 4.82594C11.8247 4.84496 11.8214 4.86568 11.8233 4.88627C11.8251 4.90686 11.8321 4.92666 11.8435 4.94391C11.8549 4.96116 11.8704 4.97531 11.8886 4.9851C11.9068 4.99489 11.9271 5.00001 11.9478 5.00001H15.104C15.1263 5.00002 15.1482 4.99407 15.1674 4.98278C15.1866 4.97148 15.2025 4.95526 15.2133 4.93579C15.2242 4.91631 15.2296 4.89429 15.2291 4.87201C15.2285 4.84973 15.222 4.828 15.2103 4.80907L13.3437 1.79782C13.3317 1.77843 13.3145 1.76272 13.2942 1.75238C13.2738 1.74205 13.251 1.73749 13.2282 1.73919C13.2055 1.7409 13.1836 1.74881 13.165 1.76206C13.1464 1.77532 13.1318 1.79341 13.1228 1.81438ZM2.65623 1.79907L0.790293 4.80907C0.778537 4.828 0.772056 4.84973 0.771523 4.87201C0.77099 4.89429 0.776423 4.91631 0.78726 4.93579C0.798097 4.95526 0.813943 4.97148 0.833158 4.98278C0.852372 4.99407 0.874256 5.00002 0.896543 5.00001H4.05279C4.07348 4.99998 4.09383 4.99482 4.11204 4.985C4.13024 4.97517 4.14571 4.96098 4.15708 4.94369C4.16845 4.92641 4.17535 4.90658 4.17716 4.88597C4.17898 4.86537 4.17565 4.84463 4.16748 4.82563L2.87498 1.81563C2.86574 1.79518 2.85116 1.7776 2.83278 1.76473C2.8144 1.75186 2.79289 1.74417 2.77052 1.74248C2.74814 1.74079 2.72572 1.74515 2.70561 1.7551C2.68551 1.76506 2.66845 1.78025 2.65623 1.79907ZM12.2897 1.00001H8.36936C8.35804 0.999932 8.34694 1.00303 8.33729 1.00894C8.32765 1.01484 8.31985 1.02334 8.31477 1.03345C8.3097 1.04356 8.30756 1.05489 8.30859 1.06615C8.30962 1.07742 8.31378 1.08817 8.32061 1.09719L10.8181 4.42407C10.8245 4.43261 10.833 4.43933 10.8428 4.44353C10.8526 4.44774 10.8633 4.44928 10.8739 4.44801C10.8845 4.44675 10.8946 4.44271 10.9031 4.43631C10.9116 4.42991 10.9183 4.42138 10.9225 4.41157L12.2375 1.34376L12.3437 1.08313C12.3475 1.07418 12.349 1.06446 12.3482 1.0548C12.3473 1.04514 12.3442 1.03582 12.3389 1.02765C12.3337 1.01948 12.3266 1.0127 12.3182 1.00788C12.3098 1.00307 12.3003 1.00036 12.2906 1.00001H12.2897ZM7.46873 14L4.67404 6.07844C4.66584 6.05544 4.6507 6.03555 4.63072 6.0215C4.61075 6.00745 4.5869 5.99994 4.56248 6.00001H0.803106C0.781328 5.99994 0.759971 6.006 0.741468 6.01748C0.722965 6.02897 0.70806 6.04542 0.698451 6.06496C0.688842 6.08451 0.684916 6.10636 0.68712 6.12802C0.689325 6.14969 0.69757 6.1703 0.710918 6.18751L7.46092 14.9316C7.48377 14.9612 7.51637 14.9817 7.55292 14.9895C7.58948 14.9974 7.62763 14.992 7.66061 14.9744C7.69377 14.9569 7.71956 14.9281 7.73327 14.8933C7.74698 14.8584 7.7477 14.8197 7.73529 14.7844L7.46873 14ZM15.1969 6.00001H11.4375C11.4132 6 11.3895 6.00754 11.3697 6.0216C11.3499 6.03565 11.3349 6.05551 11.3269 6.07844L8.25811 14.7709C8.24522 14.8074 8.24575 14.8473 8.25961 14.8835C8.27347 14.9196 8.29975 14.9496 8.33373 14.9681C8.36772 14.9865 8.40715 14.9923 8.44498 14.9843C8.48282 14.9764 8.51659 14.9552 8.54029 14.9247L15.289 6.18751C15.3024 6.1703 15.3106 6.14969 15.3128 6.12802C15.315 6.10636 15.3111 6.08451 15.3015 6.06496C15.2919 6.04542 15.277 6.02897 15.2585 6.01748C15.24 6.006 15.2186 5.99994 15.1969 6.00001ZM8.09998 2.46657L9.84998 4.80001C9.86391 4.81858 9.87239 4.84066 9.87448 4.86378C9.87656 4.8869 9.87217 4.91014 9.86178 4.93091C9.8514 4.95167 9.83544 4.96913 9.8157 4.98134C9.79595 4.99354 9.77319 5.00001 9.74998 5.00001H6.24998C6.22677 5.00001 6.20401 4.99354 6.18426 4.98134C6.16452 4.96913 6.14856 4.95167 6.13818 4.93091C6.1278 4.91014 6.1234 4.8869 6.12549 4.86378C6.12757 4.84066 6.13605 4.81858 6.14998 4.80001L7.89998 2.46657C7.91162 2.45104 7.92672 2.43844 7.94408 2.42976C7.96144 2.42109 7.98057 2.41657 7.99998 2.41657C8.01939 2.41657 8.03853 2.42109 8.05588 2.42976C8.07324 2.43844 8.08834 2.45104 8.09998 2.46657ZM7.88123 12.1638L5.76561 6.16657C5.75896 6.14772 5.75693 6.12756 5.75969 6.10777C5.76244 6.08798 5.7699 6.06914 5.78144 6.05282C5.79298 6.03651 5.80826 6.0232 5.826 6.01401C5.84375 6.00482 5.86344 6.00002 5.88342 6.00001H10.1165C10.1365 6.00002 10.1562 6.00482 10.174 6.01401C10.1917 6.0232 10.207 6.03651 10.2185 6.05282C10.2301 6.06914 10.2375 6.08798 10.2403 6.10777C10.243 6.12756 10.241 6.14772 10.2344 6.16657L8.11779 12.1638C8.10916 12.1881 8.0932 12.2092 8.0721 12.2241C8.05101 12.239 8.02581 12.247 7.99998 12.247C7.97415 12.247 7.94896 12.239 7.92786 12.2241C7.90676 12.2092 7.8908 12.1881 7.88217 12.1638H7.88123Z" fill="#0D99FF"/>
</svg>
