<svg width="16" height="16" viewBox="0 0 16 16" fill="none" xmlns="http://www.w3.org/2000/svg">
<path d="M9.85764 11.7229C10.7708 12.9631 10.5771 12.9339 11.185 13.2606C12.4402 13.9351 10.0708 14.4005 9.00445 13.8977C7.93776 13.3952 7.45504 12.177 7.92648 11.1769C8.39767 10.1769 9.15836 10.7735 9.85764 11.7229ZM15.6664 11.9247L15.5852 11.823C15.5852 11.823 15.5682 11.8019 15.5369 11.7656C15.5058 11.7282 15.4574 11.6809 15.4039 11.6126C15.39 11.5961 15.3761 11.5782 15.3606 11.5611C15.3458 11.5432 15.3291 11.5265 15.3145 11.5053C15.2846 11.4636 15.2507 11.4224 15.2159 11.3782C15.1827 11.3287 15.1484 11.28 15.113 11.232C15.0801 11.1789 15.0445 11.1249 15.0092 11.0694C14.9433 10.9531 14.8722 10.8331 14.8146 10.6992C14.8005 10.6655 14.7819 10.6347 14.7701 10.5994C14.757 10.5647 14.7431 10.5303 14.7284 10.4963C14.7207 10.4796 14.7153 10.4615 14.7096 10.4436C14.7035 10.4259 14.6974 10.4081 14.6913 10.3902C14.679 10.3549 14.6651 10.3198 14.6562 10.2826C14.6456 10.2461 14.6357 10.2094 14.6237 10.1732C14.6145 10.1362 14.607 10.0983 14.5976 10.0611C14.5931 10.0423 14.5872 10.0242 14.5837 10.0051L14.5743 9.94767L14.5632 9.8907C14.5594 9.87164 14.5545 9.85307 14.5535 9.83326C14.5498 9.79445 14.5437 9.75607 14.5383 9.71726C14.5371 9.70829 14.5345 9.69701 14.5345 9.68948L14.5338 9.66757C14.5331 9.65298 14.5319 9.63839 14.5305 9.62382C14.5291 9.60923 14.5272 9.59485 14.5253 9.58026L14.5244 9.57485L14.5242 9.57223L14.5239 9.56682L14.5235 9.54448L14.5221 9.50001L14.5177 9.35739L14.5178 9.35595L14.518 9.34864L14.5188 9.33382L14.5197 9.30417L14.5213 9.24485C14.5223 9.22507 14.5206 9.2051 14.5227 9.18554L14.5282 9.1267L14.5329 9.06807C14.5338 9.04829 14.5345 9.02876 14.5383 9.00945C14.5437 8.97085 14.5498 8.93251 14.5536 8.89345C14.5545 8.87392 14.5594 8.85507 14.5632 8.83623L14.5743 8.77901L14.5837 8.72182C14.5873 8.70276 14.5932 8.6846 14.5976 8.66579C14.607 8.6286 14.6145 8.59073 14.6237 8.55351C14.6357 8.51751 14.6456 8.48079 14.6562 8.44407C14.6652 8.40689 14.6791 8.37204 14.6913 8.33651C14.6974 8.31868 14.7036 8.30095 14.7097 8.28332C14.7153 8.26542 14.7207 8.24732 14.7285 8.2306C14.7431 8.19656 14.757 8.16219 14.7701 8.12751C14.7819 8.0922 14.8005 8.06138 14.8146 8.02773C14.8723 7.89379 14.9434 7.77351 15.0093 7.65751C15.0446 7.60173 15.0801 7.54804 15.1131 7.49464C15.1485 7.44681 15.1828 7.39815 15.2159 7.3487C15.2507 7.30445 15.2846 7.26326 15.3145 7.2216C15.3305 7.19948 15.342 7.18607 15.3548 7.1696C15.3672 7.15407 15.3785 7.13757 15.3898 7.12251L15.4221 7.07826C15.4244 7.07473 15.427 7.0712 15.4294 7.06767C15.4336 7.06367 15.4379 7.05967 15.4419 7.0557C15.4501 7.04793 15.458 7.04039 15.4656 7.03307C15.4964 7.00439 15.5219 6.97895 15.5428 6.95823C15.5641 6.93707 15.5851 6.91557 15.6057 6.89373C15.7396 6.74807 15.8125 6.54398 15.785 6.33242C15.7353 5.95276 15.3875 5.68539 15.0079 5.73504C15.0079 5.73504 14.9765 5.73929 14.9189 5.74895C14.8835 5.75485 14.8483 5.76136 14.8132 5.76848C14.8029 5.77035 14.792 5.77248 14.7809 5.7746C14.7755 5.77579 14.7699 5.77689 14.764 5.77789C14.7569 5.78023 14.7496 5.7826 14.7424 5.7852C14.7127 5.79532 14.6814 5.80614 14.6482 5.8177C14.615 5.82967 14.5795 5.8417 14.5428 5.85604C14.5068 5.87014 14.4651 5.88545 14.431 5.90101C14.3585 5.93207 14.2815 5.96926 14.1977 6.00882C14.117 6.0521 14.0323 6.10154 13.9426 6.15498C13.8565 6.21242 13.7659 6.27479 13.674 6.34398C13.4954 6.48754 13.3064 6.65582 13.136 6.86226C13.0988 6.9041 13.0635 6.94851 13.0288 6.99404C12.4367 5.06789 11.2982 3.93785 9.97986 3.0651C7.62061 1.50348 6.04907 1.67764 4.92804 2.55223C3.80679 3.42685 3.92073 5.57876 3.92073 5.57876L12.7759 7.36723L12.7722 7.37348C12.7352 7.43585 12.6964 7.49845 12.6651 7.56551C12.6324 7.63192 12.5987 7.69873 12.5669 7.76723C12.5375 7.83642 12.5097 7.90726 12.4817 7.97857C12.4683 8.0146 12.4537 8.05039 12.4417 8.08685C12.4301 8.1236 12.4186 8.16048 12.4071 8.19748C12.3962 8.23492 12.3852 8.2721 12.3741 8.30951C12.3633 8.34695 12.3515 8.38435 12.344 8.42273C12.3263 8.4992 12.311 8.57642 12.295 8.65385C12.2781 8.73104 12.2717 8.80992 12.2609 8.88854L12.2468 9.0067C12.2418 9.04623 12.2416 9.08579 12.2392 9.12554L12.2343 9.24442L12.2322 9.30398L12.231 9.33363L12.2305 9.3487L12.2303 9.35601V9.35976C12.2305 9.37976 12.2294 9.32045 12.231 9.40542L12.2385 9.58382L12.2404 9.62829L12.2416 9.65042L12.2418 9.65629L12.2428 9.66454L12.2444 9.68123L12.2588 9.8147L12.2748 9.9477L12.2837 10.0138C12.287 10.0357 12.2913 10.0531 12.295 10.0731C12.311 10.1506 12.3263 10.2278 12.344 10.304C12.3515 10.3424 12.3633 10.3798 12.3741 10.4175C12.3852 10.4549 12.3962 10.4921 12.4071 10.5293C12.4186 10.5664 12.4301 10.6032 12.4417 10.6401C12.4537 10.6766 12.4683 10.7124 12.4817 10.7482C12.5097 10.8197 12.5375 10.8903 12.5669 10.9597C12.5987 11.028 12.6323 11.0951 12.6651 11.1614C12.6964 11.2285 12.7352 11.2909 12.7722 11.3535C12.8098 11.4154 12.8447 11.478 12.8861 11.5357C12.9675 11.6517 13.0468 11.7644 13.136 11.8647C13.3064 12.0711 13.4954 12.2394 13.6741 12.383C13.7659 12.4522 13.8565 12.5146 13.9426 12.572C14.0323 12.6254 14.117 12.6748 14.1978 12.7182C14.2815 12.7575 14.3585 12.7949 14.431 12.8257C14.5033 12.857 14.5727 12.8799 14.6341 12.901C14.665 12.9114 14.6939 12.921 14.7214 12.9302C14.7485 12.9399 14.7758 12.9448 14.8 12.9514C14.849 12.9641 14.8909 12.9735 14.9248 12.9808C14.9923 12.9956 15.0284 13.002 15.0284 13.002C15.2098 13.0326 15.4056 12.9893 15.5607 12.8655C15.8497 12.6348 15.897 12.2137 15.6664 11.9247Z" fill="#00B1FF"/>
<path d="M13.7507 8.90367C13.7507 10.341 10.7146 13.7013 6.969 13.7013C4.29506 13.7013 1.98263 12.6064 0.878313 11.0158C0.800406 10.9038 0.886781 10.7515 1.02284 10.7633C1.17041 10.7762 1.35 10.7904 1.52228 10.7998C1.74094 10.812 1.83956 10.531 1.66163 10.4034C1.32175 10.1596 0.878812 9.8508 0.588375 9.68202C0.351375 9.54389 0.198844 9.29511 0.189437 9.02089C0.188181 8.98183 0.187535 8.94275 0.1875 8.90367C0.1875 6.25399 3.22366 4.10608 6.96897 4.10608C10.7146 4.10605 13.7507 7.46633 13.7507 8.90367Z" fill="#59CAFC"/>
<path d="M2.66767 7.22986C2.95364 7.22986 3.1857 7.46145 3.1857 7.74836V8.38505C3.1857 8.67145 2.95364 8.90355 2.66767 8.90355C2.38123 8.90355 2.14917 8.67145 2.14917 8.38505V7.74836C2.14917 7.46145 2.38123 7.22986 2.66767 7.22986Z" fill="#2B3B47"/>
<path d="M7.04484 11.694C6.89512 11.9042 6.71131 11.7387 6.7864 11.4916C6.96034 10.9197 7.10272 10.003 7.10272 8.96996C7.10272 7.93671 6.96034 7.02024 6.7864 6.44831C6.71131 6.20118 6.89512 6.03574 7.04484 6.2459C7.43081 6.78746 7.709 7.80471 7.709 8.96999C7.709 10.1355 7.43081 11.1525 7.04484 11.694ZM8.86012 10.9323C9.13806 10.5421 9.33859 9.80943 9.33859 8.9699C9.33859 8.13037 9.13806 7.39765 8.86012 7.00743C8.75206 6.85609 8.61978 6.97543 8.67394 7.15337C8.79937 7.56549 8.90175 8.22565 8.90175 8.9699C8.90175 9.71415 8.79937 10.3745 8.67394 10.7867C8.61978 10.9646 8.75206 11.0839 8.86012 10.9323Z" fill="#00B1FF"/>
</svg>
