<svg width="16" height="16" viewBox="0 0 16 16" fill="none" xmlns="http://www.w3.org/2000/svg">
<g clip-path="url(#clip0_194_59)">
<path d="M10.665 0.711914L7.93752 3.86723L9.91114 2.81548L10.0498 2.74126L10.1885 2.81641L10.7608 3.12698L10.6651 0.711914H10.665ZM4.0567 1.45513L4.81842 5.53035L7.59086 4.05279L4.0567 1.45513ZM10.0478 3.40535L2.60455 7.37207L6.00489 9.17191L13.4258 5.24223L10.0478 3.40535ZM11.3838 4.80179L12.1836 5.20898L6.01758 8.4571L3.92773 7.34185L4.71973 6.92288L6.01761 7.61632L11.3839 4.80182L11.3838 4.80179ZM14.2647 5.37116L14.5488 6.1221L15.3682 5.4141L14.2647 5.37113L14.2647 5.37116ZM13.7715 5.71976L6.23345 9.71191L6.05277 12.3174L14.5547 7.79204L13.7715 5.71976ZM3.31642 6.33113L0.517578 7.08691L1.66995 7.69829L1.86036 7.18954L1.89942 7.08598L1.99711 7.03423L3.31648 6.3311L3.31642 6.33113ZM2.24023 7.84088L1.33986 10.2471L5.45998 12.4395L5.65233 9.64654L2.2402 7.84091L2.24023 7.84088ZM12.7197 9.43073L7.27442 12.3292L8.99026 15.5617L10.1719 11.1904L14.6241 12.0225L12.7197 9.4306L12.7197 9.43073ZM3.32233 11.964L2.71489 13.3644L4.50002 12.5899L3.32227 11.9639L3.32233 11.964Z" fill="#FFCD29"/>
</g>
<defs>
<clipPath id="clip0_194_59">
<rect width="16" height="16" fill="white"/>
</clipPath>
</defs>
</svg>
