<svg width="16" height="16" viewBox="0 0 16 16" fill="none" xmlns="http://www.w3.org/2000/svg">
<path d="M9.929 3.4032L6.95425 6.4217L6.11268 9.13467L6.66081 10.2823L7.29884 10.5725L8.33578 8.85117L8.68881 8.73835L10.6185 9.57742L11.2516 9.17123L11.3913 7.8056L11.7482 9.48167L11.4162 9.92423L11.5341 9.97548L11.6978 10.1786L11.9113 11.2518L13.6606 9.1651L14.0975 9.17229L14.7974 10.0653L14.502 8.43264L13.5628 5.21276L9.92909 3.4032H9.929ZM3.86284 3.77795L2.94003 5.4062L2.79618 6.26932L3.60806 6.00551L3.97381 6.23604L3.97643 6.25585L4.86065 8.12664L5.29106 7.98467L5.63293 8.13054L5.7555 8.3871L6.3654 6.42095L6.33184 5.3792L5.07715 5.36289L4.14803 4.61976L5.2124 4.96001L6.54021 4.71854L7.35378 5.21479L8.48759 4.06432C8.39873 4.02641 8.30935 3.98974 8.21946 3.95432L5.73259 4.27076L5.62234 4.26295L3.86275 3.77795H3.86284ZM11.6544 4.91614L13.125 6.97926L13.1908 8.9327L12.4007 7.06714L10.3594 5.17951L11.6544 4.91614ZM3.46065 6.64489L1.45334 7.29726L0.931152 9.75201L2.51846 9.92645L2.53709 9.70332L3.71403 8.55623L3.46065 6.64498V6.64489ZM5.23215 8.59645L4.0934 8.97195L3.10453 9.9357L3.8104 10.9003L5.60184 10.9547L6.11746 10.4497L5.23215 8.59645ZM8.69046 9.35239L7.30587 11.6507L7.30484 13.4363L10.3443 13.8181L11.7269 13.2078L11.1748 10.4326L8.69046 9.35239ZM13.8688 9.79245L12.4049 11.5386L12.4139 11.594L14.4497 12.028L15.2554 11.5615L13.8688 9.79239L13.8688 9.79245ZM9.54434 10.289L10.7703 11.0028L11.1893 12.5859L10.3512 13.3308L8.9445 13.251L10.1496 12.3685L10.2272 11.1425L9.54434 10.289ZM2.09528 11.9714L1.82121 12.8624L2.23221 14.3779L5.07712 14.0058L5.11837 13.1802L3.16268 12.1804L2.09531 11.9715L2.09528 11.9714Z" fill="#1E2528"/>
</svg>
