<svg width="16" height="16" viewBox="0 0 16 16" fill="none" xmlns="http://www.w3.org/2000/svg">
<g clip-path="url(#clip0_194_20)">
<path d="M3.07326 0.521487C2.49038 1.36827 2.14057 2.15655 2.04688 2.79874L2.79495 4.02239L3.68945 2.97646C3.71657 2.31355 3.51788 1.4553 3.07326 0.521362V0.521487ZM14.7656 0.613269C13.8763 1.12671 13.2223 1.68749 12.8613 2.22655L13.0098 3.6543L14.2676 3.09374C14.5767 2.50696 14.7657 1.64717 14.7657 0.613269H14.7656ZM11.8984 1.46577C11.5812 2.12314 11.3734 2.74202 11.2686 3.28808L11.8428 5.09077L12.4609 4.02046L12.2578 2.07608H12.2587C12.147 1.86781 12.0268 1.6642 11.8984 1.46577H11.8984ZM0.85157 2.52442C0.847664 3.25455 0.926352 3.90261 1.06641 4.44049L2.35938 5.8203L2.45704 4.58886L1.43751 2.92092L1.43845 2.91992C1.24823 2.78022 1.05245 2.6483 0.85157 2.52442ZM5.00294 2.85355C4.73998 2.96305 4.49388 3.07896 4.26563 3.20024L3.03907 4.6368L2.94238 5.86724L4.51857 4.64555C4.72832 4.14855 4.89638 3.54358 5.00294 2.85355ZM10.5411 3.52936C9.79032 5.34467 10.0361 6.58749 10.7871 6.91999L11.4483 5.77546L10.8359 3.85552C10.7404 3.74428 10.6421 3.63552 10.541 3.52933L10.5411 3.52936ZM15.1045 3.53617C14.9623 3.5353 14.8242 3.5388 14.6895 3.54492L12.9667 4.31249L12.3486 5.38374L14.2968 4.95702C14.6999 4.59858 15.1121 4.12496 15.5048 3.54783C15.3686 3.54108 15.2348 3.53696 15.1044 3.53614L15.1045 3.53617ZM8.03907 3.80867C7.31282 4.53486 6.82557 5.24627 6.61626 5.86039L7.12988 7.20124L8.19926 6.33405C8.34598 5.68705 8.30663 4.8073 8.03907 3.80867ZM0.512695 4.97061C0.615195 6.93217 1.37151 7.94905 2.19238 7.92667L2.29688 6.6073L0.919914 5.13855C0.785621 5.07915 0.649817 5.02315 0.512695 4.97061ZM4.98832 5.32608C4.79401 5.36685 4.60118 5.41441 4.4102 5.46867L2.87988 6.65424L2.77638 7.95892C3.60426 8.19361 4.56263 7.31621 4.98826 5.32611L4.98832 5.32608ZM5.4902 5.37492C5.35395 6.09164 5.31363 6.74249 5.35351 7.2968L6.37501 8.89055L6.69438 7.69717L5.99416 5.87102H5.9951C5.83365 5.69884 5.66523 5.53334 5.49026 5.37492H5.4902ZM13.8467 5.65424L11.9541 6.0673L11.2999 7.20011C11.9462 7.76871 13.1885 7.38871 14.4288 5.77433C14.2362 5.7276 14.042 5.68755 13.8467 5.65424ZM9.5127 6.45205C9.2342 6.51205 8.97194 6.58205 8.7256 6.66008L7.25779 7.84852L6.93841 9.04196L8.70998 8.12686C9.00663 7.67611 9.28257 7.11155 9.51266 6.45208L9.5127 6.45205ZM14.3604 7.23527C13.5525 7.87039 12.9839 8.51839 12.7032 9.10346L13.0538 10.4951L14.2188 9.76164C14.4415 9.13696 14.5074 8.25886 14.3604 7.23527ZM10.5059 7.50386C9.42982 9.92802 8.64985 12.4745 8.5381 15.411H9.1231C9.23429 12.5738 9.98476 10.1164 11.0391 7.74117L10.5059 7.50383L10.5059 7.50386ZM4.71294 7.71967C4.45754 9.66802 5.01651 10.8045 5.82816 10.9306L6.17098 9.6533L5.08304 7.95799C4.96169 7.87546 4.83827 7.79601 4.71291 7.71971L4.71294 7.71967ZM11.6426 8.4863C11.4222 9.18139 11.3046 9.82286 11.2784 10.3779L12.1035 12.084L12.5625 10.9365L12.085 9.03999H12.0869C11.9525 8.85724 11.8046 8.67249 11.6426 8.48633L11.6426 8.4863ZM2.19045 8.53417C1.9197 10.8649 1.93638 13.154 2.57132 15.4111H3.17882C2.52641 13.1995 2.4987 10.9417 2.77057 8.60155L2.19051 8.53417H2.19045ZM9.04888 8.88086C8.84223 8.88586 8.6441 8.89774 8.45413 8.91602L6.73438 9.80561L6.39551 11.0684C7.16707 11.4505 8.26857 10.7615 9.04882 8.88086H9.04888ZM15.5088 10.0351C15.2253 10.0615 14.9568 10.0993 14.7032 10.1475L13.1046 11.1542L12.6456 12.2998L14.5128 11.6025C14.8609 11.1902 15.2019 10.6626 15.5088 10.0351ZM10.5929 10.7226C10.1076 12.627 10.5274 13.8223 11.3184 14.0439L11.8097 12.8164L10.9317 11.003C10.8245 10.9092 10.7114 10.8159 10.5929 10.7226ZM5.72657 11.5225C5.33051 12.811 5.03095 14.1021 4.8877 15.4111H5.4756C5.61644 14.1698 5.90341 12.9352 6.28513 11.6933L5.72654 11.5225L5.72657 11.5225ZM14.1641 12.3555L12.3516 13.0332L11.8652 14.248C12.5857 14.7199 13.7613 14.1666 14.7598 12.3916C14.5617 12.3726 14.363 12.3606 14.1641 12.3555V12.3555ZM11.1406 14.6572C11.0821 14.8982 11.0411 15.1496 11.0264 15.4111H11.6104C11.6244 15.2022 11.6588 14.9984 11.708 14.7959L11.1407 14.6571L11.1406 14.6572Z" fill="#FFCD29"/>
</g>
<defs>
<clipPath id="clip0_194_20">
<rect width="16" height="16" fill="white"/>
</clipPath>
</defs>
</svg>
